# xmcd CD database file
#
# Track frame offsets:
#	150
#	14042
#	30292
#	32747
#	47565
#	58830
#	71327
#	82192
#	95702
#	111422
#	137390
#	151697
#	169222
#	174847
#	198067
#	217107
#	241895
#	257657
#
# Disc length: 3677 seconds
#
# Revision: 51
# Processed by: cddbd v1.5.2PL0 Copyright (c) Steve Scherf et al.
# Submitted via: CDex 1.81
#
DISCID=ef0e5b12
DTITLE=The Blues Brothers - The Blues Brothers 2000 Soundtrack
DYEAR=1997
DGENRE=Soundtrack
TTITLE0=Born In Chicago (The Paul Butterfield Blues Band)
TTITLE1=The Blues Don't Bother Me (Matt "Guitar" Murphy)
TTITLE2=Harmonica Musings (John Popper)
TTITLE3=Cheaper To Keep Her (Dan Aykroyd, Lonnie Brooks, Junior Wells and The Blues Brothers Band)
TTITLE4=Perry Mason Theme (The Blues Brothers Band)
TTITLE5=Looking For A Fox (John Goodman, Dan Aykroyd and The Blues Brothers Band
TTITLE6=Can't Turn You Loose (The Blues Brothers Band)
TTITLE7=R-E-S-P-E-C-T (Aretha Franklin And The Blues Brothers Band)
TTITLE8=634-5789 (Eddie Floyd, Wilson Pickett, Jonny Lang and The Blues Brothers Band)
TTITLE9=Maybe I'm Wrong (Blues Traveler)
TTITLE10=Riders In The Sky (A Cowboy Legend) (Dan Aykroyd, John Goodman and The Blues Brothers Band)
TTITLE11=John The Revelator (Taj Mahal, Sam Moore, Joe Morton, Sharon Riley and The Faith Chorale)
TTITLE12=Let There Be Drums (The Carl Lafong Trio)
TTITLE13=Season Of The Witch (Dr. John and The Blues Brothers Band)
TTITLE14=Funky Nassau (Joe Morton, Dan Aykroyd, John Goodman, Paul Shaffer, Erykah Badu and The Blues Brothers Band)
TTITLE15=How Blue Can You Get (The Louisiana Gator Boys)
TTITLE16=Turn On Your Love Light (Joe Morton, Dan Aykroyd, John Goodman, J. Evan Bonifant and The Blues Brothers Band)
TTITLE17=New Orleans (The Louisiana Gator Boys and The Blues Brothers Band)
EXTD=YEAR: 1997
EXTT0=
EXTT1=
EXTT2=
EXTT3=
EXTT4=
EXTT5=
EXTT6=
EXTT7=
EXTT8=
EXTT9=
EXTT10=
EXTT11=
EXTT12=
EXTT13=
EXTT14=
EXTT15=
EXTT16=
EXTT17=
PLAYORDER=
